<svg xmlns="http://www.w3.org/2000/svg" width="154" height="154" fill="none" viewBox="0 0 154 154"><path fill="#000" d="M47.917 34.173c-2.66.1-4.937 2.859-3.91 5.366.928 2.223 3.925 2.008 5.758 1.203 3.587-1.533 2.062-6.707-1.848-6.57m2.108 5.84c-1.602 1.02-4.821 1.204-5.626-.582s.766-4.262 3.027-4.599c3.473-.629 5.098 3.595 2.6 5.182m14.013-3.142c.597-.767 1.755-1.418 2.621-1.027.506.237.805-.43.23-.537a3.07 3.07 0 0 0-3.12 1.38.16.16 0 0 0-.002.18.16.16 0 0 0 .166.072.16.16 0 0 0 .105-.068M31.145 13.614a20.4 20.4 0 0 0 4.408 1.326c.184 0 .283-.222.33-.36a8.64 8.64 0 0 1 3.525-4.6c6.386-3.756 12.533 2.66 9.858 8.731-1.487 3.366-5.366 4.34-8.532 5.228-.567.161-.436.407.115 1.725q1.396 3.358 2.752 6.723c.184.437.966.153 1.28.092.491-.085 3.174-.399 3.258-1.066s-1.64-4.224-1.97-4.975c6.087-1.67 10.203-8.125 8.816-14.373-1.74-7.75-10.226-9.581-16.949-7.35-3.541 1.18-7.067 4.346-7.121 8.362 0 .406-.077.406.23.537m6.01-8.041c6.661-2.576 15.453-1.342 17.27 6.638 1.365 5.926-2.721 12.096-8.493 13.668-.23.061-.476.168-.07.973.645 1.311 1.664 3.91 1.894 4.423-1.204.394-2.44.681-3.695.859l-3.204-7.605c3.02-.199 7.666-2.598 8.953-5.542 2.591-5.956-3.05-13.039-9.95-9.788a7.9 7.9 0 0 0-4.3 5.289l-4.292-1.257c.053-3.266 2.95-6.524 5.887-7.658M65.287 38.97c-.46-.421-1.663 1.373-1.05 1.74.345.2 1.518-1.31 1.05-1.74m10.034-.375a2.93 2.93 0 0 1 1.487 2.468.168.168 0 0 0 .233.155.17.17 0 0 0 .082-.07c.475-1.25-.476-2.484-1.48-3.144-.406-.276-.736.468-.322.59M69.817 51.16c1.081-.874 2.844-1.028 3.718.237.66.958.1 2.131-1.08 1.84a7.5 7.5 0 0 1-.966-.475.17.17 0 0 0-.223.199c.422 1.265 2.92 1.203 3.112-.46.23-1.985-2.72-3.564-4.73-1.533a.128.128 0 0 0 .077.223.13.13 0 0 0 .092-.032m2.714-7.467c.767.353 1.533-1.571.912-1.832-.62-.26-1.387 1.633-.912 1.832m-5.036 2.814c1.08.436.912-.123.766-.253a22 22 0 0 0-2.698-1.15c1.127-1.786 2.192-3.595 3.427-5.312.107-.146-.123-.33-.23-.177-1.166 1.633-2.346 3.258-3.473 4.914-.72 1.05-.49.889 2.208 1.977m27.557 63.616a2.592 2.592 0 0 0-1.318-4.899c-4.01 0-3.68 7.643 1.318 4.899m16.573-17.577c1.671 1.61 5.489.92 4.308-2.453-1.403-4.025-7.343-.468-4.308 2.453m-4.454 28.814c-5.258.429-2.491 7.719 1.235 5.512 2.537-1.51 1.402-5.757-1.235-5.512M93.588 83.976c-.605-2.553-4.867-3.19-5.818-.23-1.487 4.668 6.792 4.346 5.818.23m32.556 25.986c-5.328 1.931 2.713 9.758 4.085 2.759.514-2.575-1.931-3.541-4.085-2.759M76.011 98.195a2.668 2.668 0 0 0-.43 5.182c3.949 1.18 4.615-5.795.43-5.182"/><path fill="#000" d="M138.868 120.118c-.268-11.989-7.589-24.46-15.032-33.605a15.15 15.15 0 0 0 .552-17.048c-2.093-3.297-4.914-4.439-5.803-6.9-1.073-2.927.269-6.132.085-9.09-.215-3.557-2.3-7.474-5.972-8.433-2.437-.636-6.04.499-7.351-3.947-1.027-3.488.767-8.647-2.3-13.515-1.64-2.614-4.53-4.062-7.343-5.051-3.557-1.25-7.765-1.74-11.192.115a13.46 13.46 0 0 0-6.439-.805c2.415-2.514 3.45-7.742 2.3-11.054-.353-1.027-6.309 3.212-6.738 8.517-2.415-2.829-4.799-3.772-8.31-4.224-1.349-.176 1.465 6.83 3.88 7.757-1.84.17-4.385.767-5.712 2.124a4.85 4.85 0 0 0 .767 6.937c-2.737 4.354-5.144 9.145-5.596 14.342a8.55 8.55 0 0 0-5.228 3.833c-3.258 4.753.53 6.899-.682 10.655-1.433 4.515-5.764 2.836-7.819 5.834-1.533 2.169-1.173 5.227.314 7.335-2.245 1.288-5.074 2.89-6.852 4.738.406-11.813-1.127-22.736-1.725-25.174-.084-.322-1.288-.069-1.61-.046a16.5 16.5 0 0 0 1.342-4.469c.13-1.441 0-3.503-1.848-3.618-.16-.452 0-5.105-2.951-7.666-.644-.56-1.326-.666-1.31.353 0 1.533 1.065 2.875 1.21 5.366-.7.04-1.374.283-1.94.698-2.598-.675-5.411 5.227-3.065 5.664a5 5 0 0 0 .207 3.312c-.207 0-.652-.169-.767.069C20.398 63.93 12.587 83.27 14.725 95.167c2.492 13.852 17.401 17.7 29.582 16.32a54.5 54.5 0 0 0 5.963 19.716c.905 1.701 4.6 8.984 6.646 10.685a32.2 32.2 0 0 0-.881 7.467c0 .245.368.207.375 0 .085-2.354.4-4.693.943-6.984a55 55 0 0 0 5.175 1.871 75.9 75.9 0 0 0 42.328.345c2.032-.575 4.216-1.112 5.987-2.3.698 2.3 1.464 4.5 2.208 6.746a.148.148 0 1 0 .283-.085c-.689-2.468-1.356-4.936-2.1-7.382.492-2.192.749-4.43.767-6.676 4.691.674 11.329 1.226 15.944.299 4.615-.928 8.47-3.434 9.965-8.057a20.7 20.7 0 0 0 .958-7.014M89.388 27.55c1.41 2.667 1.793 6.57 1.349 9.505a12.2 12.2 0 0 1-2.584 6.063l-.766-.214c1.893-6.133.16-13.147-5.228-16.918a18.85 18.85 0 0 0-7.037-2.698c4.5-2.591 11.828-.368 14.265 4.262m-9.253-16.266c.445 6.07-.46 8.14-3.066 10.731a6 6 0 0 0-1.426.498A9.9 9.9 0 0 0 74.01 19.7c.652-3.51 2.645-7.052 6.125-8.416m-14.603 4.208c0-.107 0-.084.092-.061 5.205 1.188 7.152 2.614 9.552 7.343q-.276.175-.514.399a20 20 0 0 0-4.5-.399c-2.407-.422-4.239-5.097-4.63-7.282m-.69 16.703c4.983 2.721 12.924 5.052 18.812 4.285a10.06 10.06 0 0 0-2.3 6.899c.092 1.947 1.295 3.22 2.99 1.778.881-.766 2.008-2.108 3.326-1.67 1.319.436 1.142 1.946.598 3.066-2.016 4.131-5.887 3.441-4.384 12.977a27 27 0 0 0 1.203 4.768 5.45 5.45 0 0 1-1.932 3.158c-4.545 4.124-13.284 3.135-13.138-2.53a45 45 0 0 0-.115-4.683c-3.013-.613-6.838-2.008-8.716-4.645a10.1 10.1 0 0 1-1.395-3.143c-1.295-4.507-.406-9.321 1.41-13.56a41.7 41.7 0 0 1 3.642-6.7m20.743 32.402c.844.077 1.648.192 2.446.322 0 .613.766 3.066.176 6.025-.575 3.135-2.798 6.393-6.201 6.67-5.136.405-6.324-4.662-6.302-7.13 6.57.468 10.15-4.83 9.881-5.887M74.7 70.362c-.36 0-1.242 3.526-4.43 4.246-3.02.69-4.86-1.725-4.3-4.6.436-2.299 2.115-3.885 2.445-4.598l1.065-.238c-.23 2.928 2.277 4.691 5.22 5.19m-39.439-24.37c1.196.768.606 3.665.246 4.754-.292.896-.637 1.786-.959 2.675a39.5 39.5 0 0 1-7.313-.353 8.9 8.9 0 0 1-.337-3.396 1.53 1.53 0 0 0 .859-.613c.713.836 1.763-.36 2.3-.874l1.34.215a4.97 4.97 0 0 0-1.885 2.698.154.154 0 0 0 .291.054 4.6 4.6 0 0 1 2.56-2.66c.982-.284.767-.675 0-.521-.237.046-2.644-.077-2.69-.468-.046-.39 4.216-2.384 5.588-1.51m-3.649-2.191v.92c0 .145.261.153.292 0 .605-3.35-1.004-4.822-1.004-6.838 0-.376.253-.108.429 0 2.514 2.016 2.729 5.718 2.782 7.405a9.3 9.3 0 0 0-4.215 1.472c-.644.352-1.173.935-.284 1.318-.368.268-1.303 1.326-1.64.529-.338-.797.896-4.745 3.617-4.822zm-5.404 4.974c-.145-1.732 1.12-4.1 2.92-4.315-1.026 1.004-1.946 3.311-1.601 4.323-.315.422-1.28.989-1.342-.023zm.1 4.516c3.105.904 6.746.597 9.965.498l.621 4.338c-4.13.335-8.285-.01-12.303-1.02.552-1.287 1.134-2.544 1.694-3.832zm110.383 75.428c-3.526-4.07-7.305 2.3-4.085 4.17-2.737 1.587-5.934 2.077-9.053 2.162-11.284.306-23.143-2.507-33.33-7.298.521-6.132-.912-10.9-2.99-14.035 8.609-2.2 15.239-2.752 23.533-3.243.138 0 .169-.245 0-.253a38 38 0 0 0-4.821.084c-.146-.682-5.151-5.764-9.965-16.097-.077-.161-.33-.084-.26.084a75.2 75.2 0 0 0 9.152 15.385c.161.215.329.429.513.636a95.6 95.6 0 0 0-24.798 4.737c-.368.131-.115.506.1.675a15.3 15.3 0 0 0-3.388.56c-.506-.284-2.185-.399-3.427-1.603-1.533-1.533-1.655 2.055.3 2.898-5.228 2.859-6.409 7.137-4.891 6.976.368-.039.659-.399.92-.652.452-.422.92-.835 1.364-1.28-2.184 4.599.1 6.01.72 3.833a8.6 8.6 0 0 1 2.3-3.833c-1.303 2.545-.153 5.695.966 4.845.629-.491.399-3.067 2.584-4.285.245-.131.505-.215.766-.338.698.874 2.982 2.062 5.565 2.055.077.176.085.26.192.329a74.5 74.5 0 0 0 26.829 9.436 34 34 0 0 1-.767 6.899c-2.184 1.472-7.236 2.706-9.896 3.304a76 76 0 0 1-31.114.399c-2.369-.468-11.077-2.407-12.464-4.017-2.599-3.012-3.764-5.726-5.718-9.198-3.902-6.938-6.646-15.983-6.754-23.948a32.56 32.56 0 0 1 4.66-17.63 72 72 0 0 1 4.876-6.431c.123-.139-.092-.33-.207-.192-2.936 3.334-5.473 6.355-7.236 10.479a34.9 34.9 0 0 0-2.545 16.45c-9.513 1.203-20.268-.606-26.155-8.938 2.522-1.027 1.717-6.524-2.568-5.604-1.954-7.665 1.12-18.941 3.618-26.062 1.534-4.377 3.343-8.64 5.259-12.87 1.955.973 8.378 1.67 12.518 1.272a142 142 0 0 1 .69 27.412c0 .168.253.168.283 0a49 49 0 0 0 .522-6.785c3.303-3.135 9.007-6.132 13.13-8.071-.574 1.495.928 3.258 2.492 3.25 3.22 0 3.25-4.392 1.004-4.791a83 83 0 0 1 12.548-4.047c-1.533 2.062-3.066 4.683-1.954 7.29 1.303 3.127 5.917 3.441 8.593-.905a74.4 74.4 0 0 0-6.738 23.48c0 .183.253.245.283.06A80.6 80.6 0 0 1 75.23 71.29a8.16 8.16 0 0 0 1.61 4.714c3.917 5.152 14.181 1.02 11.767-11a50.5 50.5 0 0 1 16.273 5.903 2.996 2.996 0 0 0-.49 3.947 2.93 2.93 0 0 0 1.86 1.267 2.94 2.94 0 0 0 2.21-.423 2.38 2.38 0 0 0 .958-1.932c8.356 5.826 15.094 13.706 20.46 22.299 4.116 6.592 7.726 14.388 8.324 22.322.261 3.495.054 7.167-1.51 10.318zm-60.871-7.604-.713.766c-3.38 2.3-3.067 5.849-3.833 5.121-.943-.92.636-4.952 2.054-6.209 1.211-1.073-.191-.92-1.295.943l-.062.061a32 32 0 0 0-2.46 2.215c-1.717 1.579.552-7.06 11.567-7.88 2.3 2.108 2.898 5.305 3.304 8.302-3.128 0-5.282-1.955-5.565-1.924-1.71.199-2.814 2.131-3.235 3.618-.054.184-.176.997-.36 1.058-.575.199-1.671-3.465.766-5.834.184-.184-.023-.383-.168-.237m-1.273-3.741c-1.372-.414-1.77-2.744-1.265-2.637a8.3 8.3 0 0 0 3.243 1.779 12 12 0 0 0-1.978.835zm6.347-1.855c-.215 0 4.6-1.372 5.971-1.725 2.944 5.266 3.166 9.199 2.814 13.714l-4.66-2.415c-.507-4.369-1.871-8.141-4.125-9.597z"/><path fill="#000" d="M33.682 101.43c.95 1.893 5.366 1.242 5.22-1.679-.199-4.185-7.435-2.714-5.22 1.679m-3.495-35.346c.115-4.07-4.791-3.442-5.305.567-.268 2.055 5.182 3.818 5.305-.567m-.713 10.947c-1.027.988-.95 4.292 1.924 4.216 4.96-.123 1.31-7.321-1.924-4.216m25.649 43.317c1.533 2.139 5.128.583 4.522-2.2-.858-3.932-7.052-1.295-4.523 2.2m3.38-33.444c-3.12 0-3.534 4.3-1.28 5.297 5.343 2.36 5.58-5.297 1.28-5.297m19.938 51.681c3.005 2.054 6.899-2.906 3.526-4.86-3.549-2.078-6.684 2.721-3.526 4.86"/></svg>