<svg width="209" height="200" viewBox="0 0 209 200" fill="none" xmlns="http://www.w3.org/2000/svg">
<path fill-rule="evenodd" clip-rule="evenodd" d="M205.468 76.9102L192.742 187.252C191.603 196.149 185.615 199.016 178.591 198.73L56.7145 193.759C51.2435 193.536 46.641 191.411 40.5748 186.489L7.65471 159.087C2.35807 154.589 1.3432 150.655 2.06583 142.51L15.1236 14.3026C16.3444 3.46727 21.5546 0.560303 30.1458 0.910703L167.258 6.50293C171.698 6.68403 172.907 8.48238 176.486 13.7774L200.655 51.0348C206.549 59.8363 207.196 63.3628 205.47 76.9103L205.468 76.9102ZM163.808 146.196C162.671 156.662 162.413 159.036 167.038 165.195L178.528 180.842C180.032 182.446 182.019 181.752 182.567 177.887L194.716 71.8095C195.864 62.9066 192.925 58.1266 190.335 54.5208L177.799 35.7314C177.435 34.9352 175.177 32.8997 175.082 35.2339L163.956 144.839L163.808 146.196ZM25.1244 152.795L141.522 157.542C146.605 157.75 149.013 156.291 149.597 151.655L162.166 25.7574C162.728 21.4928 160.075 19.4472 154.999 19.2402L39.3774 14.5245C34.2942 14.3171 29.9628 14.9219 29.29 21.8927L17.3324 142.371C16.6597 149.342 18.8698 152.54 25.1244 152.795Z" fill="white"/>
<path d="M80.6178 76.5186L61.0905 76.5186C61.0905 92.0639 73.504 104.814 89.161 105.349L92.1202 105.451L95.5914 105.31C108.463 104.789 118.799 94.5956 119.405 81.8273L119.405 39.0928L100.145 39.0928L100.145 76.7841C100.145 81.7682 96.0732 85.8087 91.0502 85.8087L89.9802 85.8087C84.8095 85.8087 80.6178 81.6494 80.6178 76.5186Z" fill="white"/>
<path d="M47.0145 114.747L58.3835 103.439L59.3513 104.492C75.801 122.378 104.287 121.884 120.101 103.439L131.47 114.747C109.385 139.459 70.7241 139.95 48.0116 115.807L47.0145 114.747Z" fill="white"/>
</svg>
