<svg width="36" height="36" viewBox="0 0 36 36" fill="none" xmlns="http://www.w3.org/2000/svg">
<path d="M9.33675 10.2939L2.27319 17.3575C2.18683 17.4402 2.11811 17.5395 2.07116 17.6495C2.02421 17.7595 2 17.8778 2 17.9974C2 18.117 2.02421 18.2353 2.07116 18.3453C2.11811 18.4552 2.18683 18.5546 2.27319 18.6373L9.33675 25.7008" stroke="white" stroke-width="3" stroke-linecap="round" stroke-linejoin="round"/>
<path d="M26.6621 10.2939L33.7257 17.3575C33.812 17.4402 33.8807 17.5395 33.9277 17.6495C33.9747 17.7595 33.9988 17.8778 33.9988 17.9974C33.9988 18.117 33.9747 18.2353 33.9277 18.3453C33.8807 18.4552 33.812 18.5546 33.7257 18.6373L26.6621 25.7008" stroke="white" stroke-width="3" stroke-linecap="round" stroke-linejoin="round"/>
<path d="M18 33.9951V2" stroke="white" stroke-width="3" stroke-linecap="round" stroke-linejoin="round"/>
</svg>
