<svg width="154" height="154" viewBox="0 0 154 154" fill="none" xmlns="http://www.w3.org/2000/svg">
<path d="M81.4975 69.9919C81.2139 69.9919 80.8996 70.2372 80.9533 70.5591C81.0242 70.7484 81.1607 70.9059 81.3379 71.003C81.5152 71.1001 81.7215 71.1303 81.9191 71.088C82.5553 70.8657 82.2104 69.8769 81.4975 69.9919ZM81.8731 70.9424C81.7376 70.9436 81.6037 70.9139 81.4815 70.8554C81.3593 70.797 81.252 70.7113 81.1679 70.6051C80.9686 70.2218 81.8425 69.9382 82.0571 70.4748C82.0934 70.5614 82.0944 70.6586 82.0601 70.746C82.0257 70.8333 81.9586 70.9038 81.8731 70.9424ZM107.46 96.3912C107.46 96.2916 107.291 96.2839 107.291 96.3912C107.291 96.6135 107.429 97.8783 107.391 97.9243C107.098 98.0576 106.799 98.1753 106.494 98.2769C106.387 98.3305 106.494 98.4762 106.571 98.4532C106.816 98.4056 107.057 98.339 107.291 98.2539C107.491 98.1849 107.713 98.1236 107.744 97.8706C107.759 97.7326 107.468 96.6595 107.46 96.3912ZM103.482 101.565C103.206 103.259 104.516 104.018 105.659 102.102C105.78 101.904 105.857 101.683 105.887 101.453C105.916 101.223 105.895 100.99 105.827 100.768C105.513 99.9326 103.712 100.025 103.482 101.565ZM21.9151 47.7395C27.4265 30.6612 31.0521 28.3156 33.3671 19.5618C33.3661 19.5425 33.359 19.5239 33.3469 19.5088C33.3347 19.4937 33.3181 19.4829 33.2994 19.4778C33.2807 19.4727 33.2609 19.4736 33.2428 19.4804C33.2246 19.4873 33.2091 19.4997 33.1984 19.5158C30.8988 27.9937 24.9276 35.406 21.7005 47.6858C21.697 47.6999 21.6962 47.7146 21.6984 47.729C21.7005 47.7433 21.7055 47.7571 21.7129 47.7696C21.7204 47.782 21.7303 47.7929 21.7419 47.8016C21.7536 47.8102 21.7669 47.8165 21.781 47.82C21.7951 47.8235 21.8097 47.8242 21.8241 47.8221C21.8384 47.82 21.8522 47.815 21.8647 47.8075C21.8772 47.8001 21.888 47.7902 21.8967 47.7785C21.9053 47.7669 21.9116 47.7536 21.9151 47.7395ZM55.1902 28.9978C54.1572 35.2444 52.6191 41.3968 50.591 47.3946C50.5374 47.5402 50.7597 47.5939 50.8133 47.4636C52.9938 41.4984 54.5354 35.3188 55.4125 29.0285C55.3895 28.9212 55.1902 28.8675 55.1902 28.9978ZM76.1548 62.9398C77.8261 58.5464 78.721 53.8958 78.7993 49.1959C78.7934 49.1751 78.7808 49.1568 78.7635 49.1437C78.7462 49.1307 78.7252 49.1236 78.7035 49.1236C78.6819 49.1236 78.6608 49.1307 78.6435 49.1437C78.6262 49.1568 78.6137 49.1751 78.6077 49.1959C78.4823 53.8648 77.5835 58.4807 75.9478 62.8555C75.8865 63.0241 76.1088 63.0701 76.1548 62.9398ZM117.984 53.9484C117.907 57.4831 118.184 61.0165 118.812 64.4959C118.819 64.5222 118.834 64.5456 118.856 64.5623C118.877 64.579 118.904 64.5881 118.931 64.5881C118.958 64.5881 118.985 64.579 119.006 64.5623C119.028 64.5456 119.043 64.5222 119.05 64.4959C118.697 60.9775 118.214 57.5204 118.161 53.9791C118.155 53.9612 118.145 53.9451 118.131 53.9327C118.118 53.9203 118.1 53.912 118.082 53.9088C118.064 53.9056 118.045 53.9076 118.028 53.9146C118.01 53.9216 117.995 53.9333 117.984 53.9484ZM138.742 66.5885C135.983 59.0075 134.373 53.3505 134.449 44.7884C134.444 44.7694 134.432 44.7527 134.416 44.7409C134.4 44.729 134.381 44.7227 134.361 44.7227C134.342 44.7227 134.322 44.729 134.306 44.7409C134.29 44.7527 134.279 44.7694 134.273 44.7884C134.143 52.1241 135.331 60.004 138.489 66.6881C138.543 66.8185 138.742 66.7265 138.742 66.5885ZM95.0498 16.7027C95.1954 16.4651 95.1954 16.0205 94.9425 16.0895C94.6895 16.1584 94.7048 16.3347 94.7048 16.5417C94.6991 16.5838 94.707 16.6267 94.7274 16.6641C94.7477 16.7014 94.7795 16.7312 94.818 16.7492C94.8566 16.7672 94.8999 16.7724 94.9416 16.764C94.9833 16.7556 95.0212 16.7341 95.0498 16.7027ZM104.041 21.5931C104.041 21.4168 103.888 21.2175 103.696 21.2865C103.618 21.308 103.552 21.3596 103.511 21.43C103.471 21.5004 103.46 21.5839 103.482 21.6621C103.505 21.7221 103.548 21.7725 103.604 21.8054C103.659 21.8383 103.724 21.8519 103.788 21.844C103.852 21.8361 103.912 21.8072 103.957 21.7618C104.003 21.7164 104.033 21.6571 104.041 21.5931ZM146.469 107.475C144.139 107.224 141.798 107.091 139.455 107.077C138.481 107.077 137.04 106.977 136.197 107.644C136.81 103.919 132.694 100.362 127.16 102.661C126.014 103.138 124.945 103.781 123.986 104.57C123.248 105.22 122.669 106.03 122.292 106.939C118.759 104.562 114.926 108.556 116.927 110.564C115.275 110.204 113.565 110.204 111.913 110.564C110.787 110.802 108.679 111.438 108.847 112.987C109.016 114.535 111.231 114.52 112.389 114.581C121.533 115.11 131.705 115.348 140.75 113.814C141.733 113.767 142.68 113.437 143.479 112.864C143.761 112.596 143.94 112.236 143.983 111.849C144.027 111.462 143.932 111.073 143.717 110.748C144.641 110.696 145.56 110.562 146.461 110.35C147.281 110.15 148.592 109.936 149.19 109.254C150.493 107.751 147.097 107.56 146.469 107.475ZM145.825 110.173C143.449 110.672 142.529 110.219 142.529 110.495C142.529 110.771 144.437 111.339 143.257 112.657C142.375 113.653 138.819 113.853 137.715 113.991C135.822 114.236 133.921 114.405 132.035 114.52C129.651 114.658 111.5 114.642 109.959 113.845C108.732 113.217 109.246 112.005 110.25 111.438C111.638 110.672 114.849 110.204 117.915 111.193C118.13 111.262 118.207 110.94 118.007 110.863C116.336 110.235 116.413 108.694 117.54 107.567C118.92 106.187 120.859 106.425 122.407 107.422C122.798 107.652 122.737 106.509 123.304 105.82C125.011 103.801 127.441 102.532 130.073 102.286C134.396 102.002 136.711 105.421 135.722 108.265C135.661 108.433 135.937 108.548 136.013 108.387C136.573 107.222 138.374 107.368 139.463 107.391C140.842 107.391 146.285 107.705 147.626 107.92C149.312 108.249 149.803 109.346 145.825 110.173ZM69.1334 133.491C68.0422 132.958 66.8517 132.657 65.638 132.61C63.9056 132.41 62.181 132.234 60.4409 132.127C56.7639 131.868 53.0706 131.958 49.4106 132.395C47.9465 132.64 48.7207 132.84 49.2343 131.629C49.8398 130.234 49.0656 128.608 47.9312 127.735C45.2253 125.711 40.9481 126.478 38.0506 127.926C38.3071 127.354 38.4026 126.722 38.327 126.1C38.2514 125.477 38.0074 124.887 37.6213 124.393C36.4485 122.798 34.2333 122.093 32.3629 121.863C27.5721 121.211 24.9506 124.331 25.4182 127.175C20.451 125.688 18.964 129.36 20.658 131.008C19.2924 130.642 17.8529 130.658 16.4957 131.054C15.5376 131.391 14.794 132.395 15.162 133.353C14.1655 132.985 12.7551 133.284 11.8276 133.438C9.92618 133.748 8.06839 134.283 6.29321 135.032C5.65699 135.3 3.80199 135.952 3.83265 136.895C3.83265 138.083 15.6909 138.428 19.5082 137.792C19.1019 138.711 19.9375 139.325 20.9416 139.631C24.3442 140.435 27.9179 140.073 31.0905 138.604C32.4626 137.983 33.1678 139.033 38.8248 139.861C41.7019 140.242 44.6243 140.094 47.4482 139.424C48.3527 139.225 49.7018 138.987 50.2997 138.198C50.4457 138.02 50.5336 137.802 50.5514 137.573C50.5692 137.344 50.5162 137.115 50.3994 136.918C52.0866 137.025 53.7789 137.025 55.4661 136.918C57.6814 136.918 59.889 136.918 62.1043 136.787C63.9286 136.657 69.371 136.649 69.9612 135.162C70.2142 134.426 69.647 133.798 69.1334 133.491ZM67.8916 135.791C65.2931 136.366 52.3234 136.849 49.8858 136.435C49.8434 136.429 49.8004 136.439 49.7647 136.462C49.729 136.486 49.7032 136.522 49.6919 136.563C49.6807 136.604 49.6848 136.648 49.7035 136.687C49.7223 136.725 49.7544 136.755 49.7938 136.772C50.6447 137.094 49.9931 137.983 49.6175 138.251C49.4029 138.412 47.3179 139.386 43.7689 139.647C40.8041 139.799 37.8335 139.494 34.9615 138.742C33.8906 138.41 32.8032 138.133 31.7037 137.914C30.5578 138.52 29.3465 138.993 28.0933 139.325C25.8857 139.83 18.642 140.037 19.9451 137.692C20.1751 137.654 20.0294 137.201 19.8071 137.385C16.0128 138.06 6.27022 137.677 4.84447 137.102C3.76366 136.657 4.51486 136.335 5.0821 135.952C6.78902 135.01 8.63331 134.343 10.5475 133.974C11.8199 133.683 14.3188 132.955 15.5069 133.836C15.6449 133.944 15.7982 133.721 15.6832 133.606C14.8017 132.671 15.7752 131.567 16.7027 131.307C18.7069 130.919 20.7809 131.13 22.6663 131.912C22.8196 131.974 22.8886 131.713 22.7353 131.675C21.0336 131.107 20.3361 130.341 20.3131 129.528C20.3119 129.134 20.4185 128.748 20.6211 128.41C20.8237 128.072 21.1148 127.796 21.4629 127.612C22.7276 126.845 24.2684 127.167 25.5945 127.612C25.6246 127.618 25.6558 127.616 25.6851 127.607C25.7144 127.598 25.7409 127.581 25.7623 127.559C25.7836 127.537 25.7991 127.51 25.8073 127.48C25.8154 127.451 25.8161 127.42 25.8091 127.39C25.6569 126.637 25.7201 125.856 25.9912 125.138C26.2624 124.419 26.7306 123.792 27.3421 123.327C29.7184 121.334 34.1796 122.116 36.3489 123.641C37.7976 124.676 38.6485 126.753 37.4144 128.294C37.2917 128.44 37.4144 128.693 37.6366 128.578C39.9948 127.147 42.795 126.629 45.5089 127.121C48.9583 127.834 49.8015 130.617 48.4141 132.227C48.0001 132.656 47.1493 132.725 47.1263 132.878C47.019 133.537 50.775 132.257 55.9951 132.357C59.3412 132.413 62.6825 132.638 66.0059 133.031C67.0331 133.154 69.0721 133.3 69.5856 134.38C70.0072 135.316 68.5202 135.676 67.8916 135.776V135.791ZM102.294 32.1943C101.527 32.4012 100.431 32.8228 100.216 33.7273C100.04 34.4939 100.661 34.8235 101.297 34.9231C103.528 35.2757 107.023 34.8311 107.912 34.8158C108.559 34.8771 109.187 35.0674 109.76 35.3754C111.057 35.8439 112.441 36.0241 113.815 35.9037C115.189 35.7832 116.52 35.3649 117.716 34.6778C118.306 34.3329 118.667 33.9113 119.372 33.9113C120.844 33.827 122.292 33.9113 123.756 33.666C124.906 33.4897 126.585 33.3594 127.543 32.6465C127.656 32.5795 127.753 32.4892 127.829 32.3817C127.904 32.2743 127.956 32.152 127.981 32.023C128.005 31.894 128.002 31.7613 127.972 31.6335C127.941 31.5058 127.884 31.386 127.804 31.2821C127.16 30.4696 123.825 30.025 120.284 30.0633C119.517 30.0633 117.57 30.3009 117.57 30.3009C116.927 26.7672 112.527 26.5143 111.078 29.5344C110.709 29.3858 110.307 29.3357 109.913 29.3888C109.008 29.4961 108.502 30.7072 108.602 31.4584C107.908 31.4635 107.242 31.7383 106.747 32.2249C106.318 32.6465 106.187 32.4855 105.628 32.3016C104.55 31.9446 103.392 31.9073 102.294 32.1943ZM106.417 32.8918C106.449 32.9074 106.484 32.9113 106.518 32.9029C106.552 32.8944 106.581 32.8742 106.601 32.8458C106.937 32.3013 107.472 31.9096 108.092 31.7549C108.713 31.6002 109.369 31.6946 109.92 32.018C110.051 32.0946 110.158 31.8953 110.028 31.8187C109.668 31.6026 109.265 31.4691 108.847 31.4277C108.847 30.0326 109.951 29.1281 111.147 29.8947C111.166 29.9061 111.188 29.913 111.21 29.9148C111.232 29.9167 111.254 29.9134 111.275 29.9053C111.296 29.8971 111.314 29.8843 111.329 29.8679C111.344 29.8514 111.355 29.8317 111.362 29.8104C111.573 29.1448 112.006 28.5714 112.588 28.1852C113.17 27.799 113.866 27.6231 114.562 27.6865C115.258 27.75 115.911 28.0491 116.413 28.5343C116.916 29.0195 117.237 29.6616 117.325 30.3546C117.335 30.3856 117.354 30.4127 117.38 30.432C117.407 30.4513 117.438 30.4618 117.471 30.4619C119.487 30.2371 121.522 30.2192 123.542 30.4082C125.841 30.5692 129.076 31.1748 127.183 32.4166C125.788 33.3671 121.855 33.551 119.931 33.5204C119.058 33.5204 118.958 33.3824 118.306 33.8576C117.298 34.581 116.152 35.0903 114.939 35.3539C113.726 35.6176 112.472 35.6301 111.254 35.3907C110.43 35.1777 109.625 34.8956 108.847 34.5475C108.239 34.4094 107.608 34.4094 107 34.5475C105.981 34.6242 101.857 34.8618 101.144 34.5475C99.4573 33.781 101.512 32.7385 101.956 32.5775C102.681 32.3246 103.449 32.2188 104.215 32.2661C104.981 32.3135 105.73 32.5132 106.417 32.8535V32.8918ZM50.7597 20.2594C51.7241 20.2016 52.676 20.0107 53.5882 19.6922C53.5882 20.612 56.2557 21.5472 58.7469 20.4587L59.7894 19.9298C60.4888 20.1433 61.2004 20.3148 61.9203 20.4434C64.6614 20.8151 67.4489 20.6406 70.1222 19.9298C70.8198 19.7151 71.8546 19.4545 72.0769 18.6343C72.133 18.3042 72.0822 17.9648 71.9319 17.6656C71.7816 17.3664 71.5397 17.123 71.2413 16.971C70.4206 16.6403 69.5073 16.6213 68.6735 16.9173C68.1583 16.0176 67.3449 15.3261 66.3739 14.9627C65.6064 14.7216 64.7891 14.686 64.0036 14.8595C63.2181 15.0331 62.4919 15.4096 61.8973 15.9515C61.5391 15.4315 61.0403 15.0241 60.4592 14.7771C59.8781 14.5301 59.2386 14.4535 58.6156 14.5564C57.9926 14.6593 57.4117 14.9374 56.9409 15.3582C56.4701 15.779 56.1287 16.3251 55.9567 16.9326C55.6626 16.95 55.3751 17.0269 55.1116 17.1587C54.8481 17.2904 54.614 17.4743 54.4237 17.6992C52.9836 17.2321 51.4482 17.1397 49.9625 17.4309C49.1499 17.5995 47.6629 17.9445 47.1493 18.7493C46.1988 20.3437 50.0391 20.3054 50.7597 20.2594ZM54.5233 18.0134C54.549 18.0208 54.5764 18.0195 54.6013 18.0098C54.6262 18.0001 54.6473 17.9825 54.6613 17.9598C54.8183 17.7454 55.016 17.564 55.2432 17.426C55.4703 17.288 55.7224 17.196 55.985 17.1555C56.2477 17.1149 56.5158 17.1265 56.774 17.1895C57.0321 17.2525 57.2754 17.3658 57.4898 17.5229C57.5664 17.5842 57.6738 17.4462 57.5971 17.3849C57.2374 17.1065 56.8018 16.9435 56.3477 16.9173C56.5515 16.3899 56.8971 15.9292 57.3464 15.586C57.7957 15.2428 58.3312 15.0305 58.8936 14.9726C59.456 14.9147 60.0235 15.0134 60.5333 15.2579C61.0431 15.5023 61.4754 15.883 61.7824 16.3577C61.7966 16.3768 61.8152 16.3922 61.8364 16.4029C61.8577 16.4135 61.8812 16.4191 61.905 16.4191C61.9288 16.4191 61.9523 16.4135 61.9736 16.4029C61.9949 16.3922 62.0134 16.3768 62.0276 16.3577C62.7312 15.5773 63.7159 15.1082 64.7652 15.0536C65.8145 14.9989 66.8426 15.3633 67.6233 16.0665C68.4972 16.833 68.3899 17.3389 68.6811 17.2699C69.4477 17.0706 70.4135 16.741 71.1187 17.2009C72.2992 17.9675 71.8852 19.0713 70.5975 19.5005C68.4402 20.1493 66.1846 20.4089 63.9363 20.267C62.6332 20.2134 61.0158 20.2057 59.8507 19.5542C59.8292 19.5397 59.8038 19.5319 59.7779 19.5319C59.7519 19.5319 59.7266 19.5397 59.7051 19.5542C58.8887 20.1774 57.9142 20.5597 56.8919 20.658C55.9721 20.7423 54.0557 20.658 53.9408 19.4239C53.9401 19.4035 53.935 19.3835 53.9258 19.3654C53.9165 19.3472 53.9033 19.3313 53.8872 19.3189C53.8711 19.3064 53.8524 19.2977 53.8325 19.2933C53.8126 19.2889 53.792 19.289 53.7721 19.2936C52.7192 19.7497 51.5917 20.0095 50.4454 20.0601C49.6128 20.0529 48.7832 19.9604 47.9695 19.7841C45.8079 19.1632 49.7555 16.3118 54.5233 18.0134ZM103.719 93.5167C103.708 93.4959 103.692 93.4784 103.671 93.4663C103.651 93.4541 103.628 93.4477 103.604 93.4477C103.581 93.4477 103.557 93.4541 103.537 93.4663C103.517 93.4784 103.5 93.4959 103.489 93.5167C103.395 93.7256 103.358 93.9557 103.382 94.1836C103.368 94.4168 103.396 94.6506 103.466 94.8735C103.535 95.0344 103.796 94.9731 103.742 94.7968C103.604 94.1453 103.857 93.9766 103.719 93.5167ZM109.422 92.7502C109.402 92.7377 109.379 92.7308 109.355 92.7304C109.332 92.73 109.309 92.736 109.288 92.7478C109.268 92.7596 109.251 92.7768 109.239 92.7975C109.228 92.8181 109.222 92.8415 109.223 92.8652C109.223 93.1181 109.53 93.4324 109.491 94.1299C109.491 94.1665 109.506 94.2016 109.532 94.2275C109.558 94.2534 109.593 94.2679 109.629 94.2679C109.666 94.2679 109.701 94.2534 109.727 94.2275C109.753 94.2016 109.767 94.1665 109.767 94.1299C109.874 93.7313 109.79 92.9342 109.422 92.7502Z" fill="black"/>
<path d="M139.884 70.1682C139.792 69.8923 138.443 69.9459 137.93 70.0149C138.482 69.7466 139.056 68.9878 138.88 68.7962C138.512 68.3822 137.638 68.7962 137.025 69.0798C137.424 68.6505 137.83 68.0679 137.194 67.999C136.558 67.93 135.661 68.6965 135.201 68.9801C134.5 69.4145 133.854 69.9318 133.277 70.5208C133.231 70.4289 133.177 70.3445 133.131 70.2602C133.114 70.2326 133.088 70.2116 133.057 70.2005C133.027 70.1894 132.993 70.1888 132.963 70.1989C131.192 70.8198 129.689 70.1299 125.634 70.8428C122.346 71.433 121.219 72.7131 119.548 73.6713C117.065 75.1047 115.248 73.6713 111.799 74.5145C110.204 74.9284 109.208 75.6796 107.613 76.5764C106.425 75.3193 103.014 74.8901 103.014 74.8747C91.0026 66.7955 75.0435 61.5908 61.0236 67.7153C58.8084 68.6703 56.743 69.9405 54.8914 71.4867C53.89 71.2337 52.8503 71.1687 51.8252 71.295C50.1465 71.4637 49.725 70.6895 48.6518 70.0916C47.1187 69.2177 45.2484 69.4554 43.5237 69.716C43.8252 69.0824 44.0615 68.4198 44.2289 67.7383C44.2749 66.5119 42.2053 65.868 44.3132 61.6061C44.6446 61.0606 44.8489 60.4476 44.9111 59.8124C44.9111 58.8849 44.2826 58.0877 43.9453 57.2215C42.9028 54.5617 44.7118 53.2356 44.9418 51.3882C45.0951 49.9625 44.2673 48.7514 44.2596 47.1723C44.2596 46.7277 44.5202 46.2755 44.4436 45.8539C43.9546 45.7234 43.4579 45.6235 42.9565 45.5549C42.9565 45.2867 42.9565 45.026 42.9182 44.7884H43.0408C43.5007 44.3898 44.4129 41.9523 43.6157 41.0018C43.3474 40.6721 35.8354 37.2381 35.4445 38.7022C35.2682 39.3844 35.8967 40.0972 36.487 40.4882C38.7252 41.9522 38.5566 43.3627 39.1085 43.4776C38.9705 43.9299 38.8249 44.3745 38.6639 44.8191C38.3354 44.7674 37.9993 44.7937 37.6828 44.8957C36.9929 45.2023 37.2075 45.7542 37.0695 46.4288C36.6173 48.9123 34.6166 51.2503 33.6201 53.5575C33.1158 54.9651 32.8264 56.4406 32.7616 57.9344C32.4627 60.3796 33.1372 63.2541 32.2787 65.5384C31.8744 66.4602 31.4136 67.3562 30.899 68.2213C29.4502 70.9884 29.5269 74.1619 30.4697 75.9939C30.784 76.5841 31.2362 77.0823 31.6042 77.6419C32.2711 78.6537 32.3707 80.4321 33.0836 81.2829C33.5895 81.8732 34.8773 82.0495 35.8737 82.0495C36.372 81.7888 36.8549 81.4822 37.3378 81.2829C39.6374 80.1791 40.7106 81.9575 42.7035 81.3903C44.0986 80.9917 45.2867 79.9109 46.8121 80.2175C46.9118 80.2175 46.8658 80.3861 46.7661 80.3708C44.9725 80.0258 43.7 81.6509 41.983 81.8272C41.0402 81.9268 40.2353 81.4286 39.3231 81.3213C38.089 81.168 37.1079 81.8042 36.0807 82.3791C34.2027 83.4216 31.4815 82.7777 29.5499 83.5519C29.3276 83.6515 26.8747 84.8166 26.8823 84.8243C26.3228 83.5365 26.7137 82.0725 26.8823 80.6774C27.2662 78.8895 27.211 77.0352 26.7214 75.2733C26.3292 74.3254 25.8865 73.3991 25.3953 72.4985C24.1765 69.4324 26.0698 66.1976 25.5869 63.3001C25.2956 62.089 24.5291 61.2152 24.4371 59.2605C24.4371 58.7393 24.6517 58.195 24.5981 57.7274C24.2884 57.6219 23.9705 57.5424 23.6476 57.4898V56.432C23.8162 56.4857 23.8469 56.386 23.8622 56.3554C24.3095 55.82 24.5776 55.1578 24.6287 54.462C24.6514 54.0598 24.5777 53.658 24.4137 53.29C24.2497 52.922 24.0002 52.5985 23.6859 52.3464C23.3333 52.1241 16.6032 50.8593 16.0206 50.8133C14.9705 50.6754 14.9781 52.2391 16.6032 53.2049C17.2087 53.5729 18.8491 54.1478 19.309 55.3435C19.309 55.3895 19.3703 55.6118 19.493 55.6502C19.4393 56.1867 19.355 56.7156 19.263 57.2445H17.9599C17.9599 57.2445 16.5112 62.8019 16.2506 63.2618C15.1391 65.2318 13.7133 67.1634 13.4604 69.4784C13.2304 71.4713 13.9356 73.5027 13.5524 75.4726C13.2151 77.159 12.1266 78.5388 11.3601 80.1178C8.29397 86.1504 11.6744 87.9824 13.0465 90.9106C14.0046 92.9495 13.6214 95.1955 14.8631 97.1578C15.4374 98.0807 16.2035 98.8691 17.1095 99.4696C18.0155 100.07 19.0402 100.469 20.1139 100.638C22.5898 100.975 25.104 100.04 27.5722 100.439C28.6277 100.664 29.6673 100.959 30.6843 101.32C33.9035 102.247 37.3305 102.156 40.4959 101.059C42.029 100.531 43.4624 99.7717 45.0491 99.6184C46.9118 99.4267 48.1996 99.9939 49.9319 100.653C50.2769 101.619 51.2044 101.765 52.1472 102.064C55.9966 103.372 59.9662 104.297 63.9977 104.823C62.4647 105.59 60.9316 106.188 59.7818 107.498C58.5906 108.832 57.9543 110.571 58.0035 112.358C58.1425 114.221 58.9803 115.962 60.3491 117.233C61.2704 118.09 61.9701 119.158 62.388 120.345C62.6065 121.317 62.9357 122.261 63.3692 123.159C63.7802 123.932 64.3431 124.614 65.024 125.165C65.705 125.715 66.49 126.123 67.3322 126.363C69.5704 127.007 70.9885 126.815 73.0121 129.107C74.2846 130.548 75.3884 132.05 77.412 132.38C78.5844 132.499 79.7657 132.499 80.9381 132.38C81.5206 132.38 84.2342 132.265 84.4718 133.254C84.5178 133.453 84.7784 133.384 84.7937 133.208C84.8249 132.874 84.9241 132.551 85.085 132.257C85.5976 133.075 86.1991 133.833 86.8787 134.519C87.3999 135.032 88.1895 135.929 88.9483 136.052C89.8835 136.228 89.3776 135.385 88.8103 134.656C89.2941 135.004 89.807 135.309 90.3434 135.569C90.5887 135.684 91.0639 135.852 91.2173 135.484C91.3706 135.116 90.857 134.718 90.6654 134.549C90.4737 134.381 90.3051 134.204 90.1134 134.028C91.1789 134.603 92.413 135.093 92.5357 134.404C92.62 133.951 91.8995 133.752 90.9566 133.123C91.4932 133.277 92.1294 133.399 92.2981 133.123C92.6047 132.595 91.4932 132.204 91.0026 131.889C90.6654 131.682 90.2897 131.452 89.9295 131.245C90.6117 131.138 91.7462 130.824 91.3322 130.149C91.0333 129.659 90.0215 130.149 87.4996 130.149C87.7602 129.986 88.0157 129.84 88.2661 129.712C88.4041 129.628 88.3121 129.375 88.1511 129.436C87.5762 129.651 87.3156 127.589 87.2236 127.259C86.6794 125.029 85.5603 122.99 83.506 121.932C82.2029 121.265 81.0837 120.782 80.3325 119.449C79.0831 117.218 78.7995 115.968 76.2316 115.294C84.6634 111.906 91.7845 106.54 98.7906 100.906C99.6261 104.463 104.44 106.142 107.897 102.73C110.457 100.201 111.193 95.5481 111.155 95.3488C111.967 94.7969 111.975 94.5822 112.136 93.5014C112.344 92.3331 112.405 91.1436 112.32 89.9601C112.627 89.3769 112.903 88.7782 113.148 88.1664C116.681 86.7483 117.946 86.9399 119.931 85.8668C121.235 85.1616 122.407 84.2417 123.672 83.4752C125.005 82.7443 126.417 82.1682 127.88 81.7582C130.832 80.7924 132.035 78.6921 133.507 76.2468C133.809 75.8691 134.084 75.4694 134.327 75.051C134.426 74.465 134.426 73.8664 134.327 73.2804C134.634 73.38 134.94 73.4643 135.247 73.5563C135.553 73.6483 136.68 74.2845 136.979 73.9626C137.431 73.4797 136.596 72.8894 136.059 72.5981C136.763 72.5035 137.472 72.4498 138.183 72.4372C138.581 72.4372 139.363 72.4372 139.608 71.9926C139.854 71.548 139.233 71.3334 138.566 71.2261C139.233 71.0344 140.061 70.7048 139.884 70.1682ZM38.9859 44.8727C39.1315 44.4435 39.2695 44.0066 39.3845 43.5696C40.533 43.8213 41.651 44.1966 42.7189 44.6888V45.5396C40.266 45.2253 39.944 45.003 38.9859 44.8804V44.8727ZM23.318 57.4438C22.4825 57.3442 20.2519 57.2445 19.5926 57.2369C19.6693 56.7463 19.7153 56.2557 19.7459 55.7651H19.8149C21.0143 55.8342 22.2021 56.0373 23.3563 56.3707C23.3486 56.7233 23.3333 57.0912 23.318 57.4438ZM102.761 74.9284C102.132 74.8365 101.496 74.798 100.86 74.8134C99.2504 74.8914 97.6765 75.3166 96.2464 76.0599C94.8163 76.8032 93.5639 77.8471 92.5751 79.1198C91.5864 80.3926 90.8846 81.8642 90.5179 83.4336C90.1512 85.0031 90.1283 86.6332 90.4507 88.2124C90.5331 89.338 90.7283 90.4525 91.0333 91.5391C89.9714 91.9432 88.8688 92.231 87.7449 92.3976C89.2166 91.2708 89.4466 88.4883 88.795 86.9783C88.3669 86.0179 87.6991 85.1838 86.8557 84.556C83.0614 79.1903 81.4057 75.0434 79.7729 69.5397C83.7819 69.394 87.7909 69.1641 91.8075 69.0414C95.6425 70.6407 99.3114 72.6124 102.761 74.9284ZM97.3955 94.8582C96.7623 94.7112 96.2103 94.3254 95.8546 93.7813C95.499 93.2371 95.3672 92.5767 95.4868 91.9377C95.5261 91.6121 95.6328 91.2983 95.8001 91.0162C95.9674 90.7342 96.1916 90.49 96.4585 90.2994C96.7253 90.1088 97.029 89.9759 97.35 89.9091C97.6711 89.8423 98.0026 89.8432 98.3233 89.9116C98.6441 89.98 98.947 90.1145 99.2129 90.3065C99.4788 90.4985 99.7017 90.7438 99.8676 91.0267C100.033 91.3096 100.138 91.624 100.176 91.9498C100.214 92.2756 100.183 92.6056 100.086 92.9189C99.9775 93.5365 99.6284 94.0859 99.1155 94.4465C98.6025 94.8072 97.9674 94.9497 97.3495 94.8429L97.3955 94.8582ZM49.8246 78.2245C50.563 76.7848 51.4714 75.4388 52.5305 74.2155C61.7825 63.6374 78.2706 63.4074 91.4395 68.8498C87.4935 68.7624 83.5459 68.9211 79.6196 69.3251C79.6078 69.3259 79.5963 69.3293 79.5859 69.3349C79.5754 69.3406 79.5663 69.3483 79.559 69.3577C79.5518 69.3671 79.5466 69.378 79.5439 69.3895C79.5411 69.4011 79.5408 69.413 79.543 69.4247C80.8413 74.7424 83.1666 79.7549 86.3881 84.1804C84.5944 82.9693 82.2795 82.2948 80.3938 81.6739C72.7405 79.3422 64.7995 78.0883 56.8 77.9485C55.0584 77.8294 53.3324 78.3439 51.9402 79.3973C50.8506 80.2558 50.079 81.4536 49.7479 82.8007C48.6058 81.3673 48.9814 79.8725 49.8246 78.2245ZM49.9089 83.0306C50.2447 81.7283 50.9888 80.5678 52.0322 79.7192C53.3907 78.6559 55.0941 78.1317 56.8154 78.2475C63.5067 78.3625 70.1628 79.2447 76.6532 80.8767C81.4057 82.1338 88.9177 84.1038 88.9177 88.726C88.9177 89.9524 88.4654 91.7921 87.2926 92.4436C85.2534 92.664 83.1954 92.646 81.1604 92.39C73.9967 91.3584 66.8936 89.9434 59.8815 88.1511C56.5011 87.2619 52.1242 85.7058 49.9089 83.0306ZM90.3741 130.142C91.1943 130.004 91.1406 130.418 90.9643 130.602C90.5112 130.84 90.0115 130.976 89.5002 131C89.4728 131.001 89.4465 131.011 89.4249 131.028C89.4033 131.044 89.3875 131.068 89.3799 131.094C89.3722 131.12 89.3731 131.148 89.3823 131.174C89.3915 131.2 89.4087 131.222 89.4312 131.238C89.8528 131.498 90.2897 131.728 90.696 132.004C91.1185 132.204 91.5214 132.443 91.8995 132.717C92.1218 132.939 91.8228 133.054 91.3476 132.939C90.2208 132.771 90.0598 132.395 89.2473 131.981C89.2183 131.97 89.1862 131.969 89.1567 131.979C89.1272 131.989 89.1023 132.01 89.0866 132.036C89.0708 132.063 89.0652 132.095 89.0708 132.126C89.0763 132.156 89.0927 132.184 89.117 132.204C89.9908 132.74 90.7803 133.369 91.6772 133.882C91.9378 134.036 92.528 134.557 91.8765 134.496C91.374 134.357 90.8882 134.165 90.4277 133.921C89.8087 133.622 89.2164 133.27 88.657 132.87C88.5191 132.771 88.3888 133.001 88.5267 133.093C89.2767 133.635 89.977 134.243 90.6194 134.909C90.903 135.676 89.8528 134.909 89.5922 134.779C89.0425 134.444 88.5104 134.08 87.9978 133.691C87.8905 133.599 87.6989 133.691 87.7985 133.852C88.3504 134.618 89.5002 135.73 88.6647 135.645C88.3504 135.645 87.8982 135.139 87.7295 134.955C86.7625 134.095 85.9259 133.098 85.246 131.997C85.7604 131.298 86.4159 130.716 87.17 130.287C89.0096 130.31 89.5692 130.134 90.3741 130.142ZM90.4814 106.862C85.9083 110.15 80.9915 112.931 75.8177 115.156C74.9127 115.04 74.0716 114.628 73.4261 113.983C72.7209 113.14 72.6595 111.959 71.755 111.247C71.6631 111.17 71.5327 111.3 71.6247 111.377C72.5676 112.143 72.5906 113.477 73.4337 114.328C74.7445 115.639 77.4274 114.872 79.2057 117.8C79.6291 118.761 80.1424 119.68 80.7388 120.545C82.3178 122.308 84.9854 121.579 86.5721 126.324C86.94 127.405 87.032 129.03 87.6529 129.613C86.3804 130.341 84.9087 131.299 84.5331 132.74C83.9659 132.196 82.6398 132.081 82.0495 132.05C79.9033 131.943 77.5424 132.663 75.6184 131.368C74.1696 130.395 73.3188 128.754 71.962 127.696C70.6052 126.639 68.7426 126.508 67.0945 125.972C64.7949 125.205 63.4842 123.289 62.8863 121.058C62.1581 118.322 61.7748 118.406 60.0195 116.367C59.221 115.489 58.6833 114.405 58.4666 113.238C58.25 112.071 58.363 110.866 58.793 109.76C59.6055 107.698 61.2536 106.479 63.1852 105.544C64.9023 104.708 66.351 103.926 67.3705 102.255C67.9241 101.177 68.7094 100.235 69.6701 99.4957C70.7325 98.784 71.9864 98.4123 73.2651 98.4302C73.2859 98.4243 73.3042 98.4117 73.3173 98.3944C73.3303 98.3771 73.3374 98.3561 73.3374 98.3344C73.3374 98.3128 73.3303 98.2917 73.3173 98.2744C73.3042 98.2571 73.2859 98.2445 73.2651 98.2386C71.5299 98.2137 69.855 98.8748 68.6046 100.078C67.3858 101.274 66.9872 103.275 64.3734 104.616C60.6387 104.175 56.9568 103.367 53.3813 102.202C52.1702 101.818 50.3918 101.627 50.1006 100.186C49.9998 99.6213 49.9485 99.0494 49.9473 98.4762C49.8009 93.7188 50.078 88.9578 50.7751 84.2494C54.9833 87.7141 61.4069 88.9176 66.6806 90.052C71.0192 90.9872 75.3961 91.8457 79.8036 92.4666C82.0566 92.8235 84.3432 92.9187 86.6181 92.7502C89.4389 95.2721 90.2361 97.6484 90.2974 100.469C90.4507 102.202 90.5734 104.562 90.4507 106.862H90.4814ZM93.0186 105.007C93.7851 100.017 93.4785 95.7704 90.6654 91.8764L91.0946 91.7154C92.0911 95.0192 93.7468 96.3759 95.6938 97.0811C95.5374 97.5003 95.4701 97.9475 95.4962 98.3941C95.5223 98.8407 95.6412 99.277 95.8453 99.6752C96.0494 100.073 96.3343 100.424 96.6817 100.706C97.0291 100.988 97.4314 101.195 97.8631 101.312C96.2764 102.531 94.659 103.781 93.0186 105.015V105.007ZM107.644 102.554C103.949 106.18 98.9439 103.873 98.7446 99.7487C98.7395 99.7333 98.7298 99.72 98.7167 99.7105C98.7036 99.701 98.6879 99.6959 98.6718 99.6959C98.6556 99.6959 98.6399 99.701 98.6268 99.7105C98.6137 99.72 98.604 99.7333 98.5989 99.7487C98.6 100.05 98.6283 100.35 98.6833 100.646L98.0854 101.113C97.2594 100.809 96.5474 100.258 96.0464 99.534C95.8386 99.1658 95.7162 98.7555 95.6884 98.3336C95.6605 97.9116 95.7278 97.4889 95.8854 97.0965C98.07 97.794 99.2812 97.1808 98.6066 95.0345C100.679 96.3835 103.087 97.1293 105.559 97.1884C105.559 97.1884 105.942 95.5864 107.284 95.8317C107.797 95.9237 108.28 96.8512 108.594 96.8282C108.915 96.7371 109.212 96.5805 109.468 96.3683C109.949 96.0867 110.415 95.7797 110.863 95.4484C110.212 98.0086 109.614 100.622 107.644 102.554ZM111.783 94.0763C111.53 94.9808 109.223 96.3759 108.939 96.4986C108.403 96.6749 108.48 96.4986 108.173 96.2073C107.905 95.8985 107.532 95.7012 107.126 95.6544C106.72 95.6075 106.311 95.7146 105.981 95.9543C105.715 96.2449 105.507 96.583 105.367 96.9508C105.367 96.9508 103.704 96.8588 103.19 96.7515C101.56 96.3932 100.004 95.7552 98.5913 94.8659C98.9603 94.7131 99.2899 94.4784 99.555 94.1796C99.8201 93.8808 100.014 93.5257 100.122 93.1411C100.229 92.7565 100.248 92.3524 100.177 91.9593C100.106 91.5663 99.9463 91.1946 99.7104 90.8722C103.052 93.1028 107.291 92.252 111.001 90.6806C111.262 90.5733 111.829 90.144 112.075 90.328C112.123 91.5845 112.025 92.8423 111.783 94.0763ZM133.108 76.2008C132.104 77.8565 131.123 79.7115 129.413 80.7387C127.704 81.7659 125.765 81.9345 124.048 82.8697C122.17 83.9198 120.552 85.3915 118.536 86.2041C117.456 86.6333 116.313 86.7636 115.233 87.1622C114.535 87.4228 113.838 87.6681 113.125 87.9288C113.417 86.9189 113.523 85.8645 113.439 84.8166C113.09 83.16 112.41 81.5908 111.441 80.2027C110.471 78.8146 109.232 77.636 107.797 76.7374C109.89 75.6336 111.047 74.5911 113.93 74.5068C115.056 74.5068 116.175 74.7368 117.302 74.6908C120.89 74.5221 121.135 70.6358 130.494 70.7815C130.893 70.7815 132.487 70.5515 132.794 70.6128C133.461 70.7508 133.974 72.7668 134.028 73.7249C134.066 74.8058 133.637 75.327 133.108 76.2008ZM137.362 71.1571C137.344 71.1524 137.325 71.152 137.307 71.1558C137.289 71.1596 137.272 71.1675 137.257 71.179C137.242 71.1905 137.23 71.2052 137.222 71.2219C137.214 71.2387 137.209 71.2572 137.209 71.2759C137.209 71.2946 137.214 71.313 137.222 71.3298C137.23 71.3466 137.242 71.3613 137.257 71.3728C137.272 71.3842 137.289 71.3922 137.307 71.396C137.325 71.3998 137.344 71.3993 137.362 71.3947C137.73 71.3947 139.662 71.3947 139.056 72.0003C138.673 72.4065 135.331 72.0003 135.5 72.5598C135.504 72.5786 135.513 72.5959 135.527 72.6095C135.54 72.6231 135.558 72.6325 135.576 72.6365C135.653 72.6365 136.856 73.242 136.642 73.7173C136.573 73.8859 134.71 73.1347 134.189 72.9507C134.032 72.1465 133.753 71.371 133.361 70.6512C134.035 69.9988 134.781 69.4253 135.584 68.9418C135.939 68.6738 136.339 68.4713 136.764 68.3439C137.914 68.1906 136.65 69.1104 136.374 69.3404C136.282 69.4094 136.374 69.578 136.489 69.5397C136.719 69.44 138.221 68.7195 138.466 68.8881C139.064 69.3021 136.979 70.1299 136.833 70.1912C136.815 70.1915 136.797 70.1961 136.78 70.2045C136.763 70.213 136.749 70.2251 136.738 70.2399C136.726 70.2548 136.719 70.272 136.715 70.2903C136.712 70.3086 136.712 70.3275 136.717 70.3455C136.722 70.3635 136.731 70.3801 136.743 70.3942C136.755 70.4083 136.77 70.4194 136.787 70.4267C136.805 70.434 136.823 70.4373 136.842 70.4364C136.86 70.4354 136.879 70.4302 136.895 70.4212C137.682 70.2285 138.492 70.1434 139.302 70.1682C139.777 70.7738 137.554 71.1417 137.362 71.1571ZM104.448 22.2831C104.601 22.0547 104.679 21.7841 104.67 21.5092C104.662 21.2343 104.568 20.9688 104.402 20.75C104.298 20.6437 104.172 20.5622 104.032 20.5117C103.893 20.4612 103.744 20.443 103.596 20.4585C103.448 20.474 103.306 20.5228 103.18 20.6012C103.054 20.6795 102.948 20.7855 102.869 20.911L102.324 20.5277C102.838 20.3284 105.091 19.3933 105.436 17.7529C105.45 17.623 105.432 17.4918 105.384 17.3704C105.336 17.2489 105.259 17.1409 105.16 17.0553C104.187 16.5111 101.19 17.3006 98.0854 18.2741L95.8164 17.063C95.9456 16.7749 95.9897 16.4558 95.9436 16.1434C95.8974 15.8311 95.7629 15.5384 95.5558 15.3C94.8889 14.7634 94.245 15.2463 93.9768 15.9132C93.1336 15.2846 88.7873 13.0081 87.9518 13.353C87.1163 13.6979 88.1818 14.8861 88.7184 15.461C90.0445 16.7181 92.2751 18.4274 93.6472 19.4776C90.1947 20.4165 86.8218 21.6263 83.5596 23.0956C83.2377 22.5744 81.4133 20.9723 81.0914 21.0643C80.7694 21.1563 80.8384 21.7925 81.4517 24.4217C81.5896 25.0043 81.7046 25.4565 82.0955 25.6865C82.3485 25.8321 86.4801 24.9583 87.5532 24.69C90.4431 23.9234 92.5357 23.7778 97.3802 22.1988C101.159 23.3332 105.413 25.7248 105.965 24.0998C106.172 23.6398 105.551 22.9193 104.448 22.2831ZM85.9895 23.6015C85.5833 23.5095 85.3993 22.835 85.8745 22.6893C86.0041 22.6501 86.1427 22.6527 86.2706 22.6967C86.3986 22.7408 86.5094 22.824 86.5874 22.9346C86.6168 23.021 86.6227 23.1136 86.6045 23.2029C86.5862 23.2923 86.5445 23.3752 86.4837 23.4431C86.4228 23.511 86.3449 23.5614 86.2581 23.5893C86.1712 23.6171 86.0785 23.6214 85.9895 23.6015ZM88.4347 22.651C87.4689 22.4747 88.6647 21.2253 89.0786 21.9458C89.2473 22.3061 88.864 22.72 88.4347 22.651ZM90.2361 22.0761C89.8605 22.421 89.2779 22.1604 89.3929 21.7082C89.4339 21.6109 89.5027 21.5279 89.5906 21.4696C89.6786 21.4112 89.7818 21.3801 89.8873 21.3801C89.9929 21.3801 90.0961 21.4112 90.184 21.4696C90.2719 21.5279 90.3407 21.6109 90.3817 21.7082C90.3858 21.7764 90.3749 21.8447 90.3498 21.9083C90.3246 21.9719 90.2858 22.0292 90.2361 22.0761ZM91.9838 21.4629C91.7845 21.9381 90.581 21.7848 90.926 21.0566C91.2632 20.5047 92.4284 20.7883 91.9838 21.4629ZM95.6861 16.8637C95.6424 17.0463 95.5384 17.2088 95.391 17.3251C95.2436 17.4413 95.0613 17.5045 94.8736 17.5045C94.6859 17.5045 94.5036 17.4413 94.3562 17.3251C94.2088 17.2088 94.1048 17.0463 94.0611 16.8637C93.8235 16.0972 94.6053 14.7941 95.4408 15.4456C95.6091 15.6359 95.7229 15.8681 95.7701 16.1177C95.8173 16.3674 95.7963 16.6251 95.7091 16.8637H95.6861ZM103.482 22.5667C103.314 22.4969 103.167 22.3841 103.057 22.2396C102.947 22.0952 102.876 21.9242 102.853 21.744C102.83 21.5637 102.854 21.3804 102.924 21.2127C102.994 21.0449 103.107 20.8986 103.252 20.7883C103.341 20.7246 103.444 20.6808 103.552 20.6602C103.66 20.6395 103.771 20.6423 103.878 20.6685C103.985 20.6947 104.085 20.7436 104.172 20.8119C104.258 20.8802 104.328 20.9663 104.379 21.0643C104.716 21.8615 104.08 22.697 103.482 22.5667Z" fill="black"/>
</svg>
