<svg width="39" height="41" viewBox="0 0 39 41" fill="none" xmlns="http://www.w3.org/2000/svg">
<path fill-rule="evenodd" clip-rule="evenodd" d="M24.9175 0.0725685L2.46579 1.75969C0.648893 1.88947 0 3.12237 0 4.54993V29.2079C0 30.311 0.389336 31.2843 1.36268 32.5172L6.61871 39.3955C7.46227 40.4986 8.30583 40.7582 9.92807 40.6284L36.0136 39.071C38.2198 38.9413 38.8687 37.903 38.8687 36.151V8.3784C38.8687 7.46995 38.5443 7.21039 37.4411 6.43172C37.3762 6.36683 37.3114 6.36683 37.2465 6.30194L30.1086 1.30547C28.4215 0.00767925 27.7077 -0.122099 24.9175 0.0725685ZM10.5121 7.92418C8.37072 8.05395 7.9165 8.11884 6.6836 7.08061L3.6338 4.67971C3.30936 4.35526 3.43913 3.96593 4.28269 3.90104L25.8908 2.34369C27.7077 2.21392 28.6162 2.79792 29.33 3.38192L33.0287 6.04239C33.2233 6.10728 33.6127 6.5615 33.0936 6.5615L10.7716 7.92418H10.5121ZM8.04628 35.8915V12.3366C8.04628 11.2984 8.37072 10.8442 9.27917 10.7793L34.9105 9.28685C35.754 9.22196 36.1433 9.74108 36.1433 10.7793V34.1395C36.1433 35.1777 35.9487 36.0212 34.586 36.0861L10.0578 37.5137C8.69517 37.6435 8.04628 37.1244 8.04628 35.8915ZM32.25 13.6344C32.3798 14.3482 32.25 15.062 31.5362 15.1269L30.3682 15.3864V32.7768C29.33 33.3608 28.4215 33.6203 27.6428 33.6203C26.41 33.6203 26.0855 33.231 25.1122 32.063L17.3254 19.8638V31.6088L19.7912 32.1928C19.7912 32.1928 19.7912 33.6203 17.8446 33.6203L12.3939 33.9448C12.2641 33.6203 12.3939 32.8417 12.913 32.7119L14.3405 32.3226V16.7491L12.3939 16.5545C12.2641 15.8407 12.6534 14.8024 13.7565 14.7376L19.5966 14.3482L27.6428 26.6772V15.7758L25.5664 15.5162C25.4366 14.6727 26.0206 14.0238 26.7993 13.9589L32.25 13.6344Z" fill="#373530"/>
</svg>
