<svg width="31" height="28" viewBox="0 0 31 28" fill="none" xmlns="http://www.w3.org/2000/svg">
<path d="M15.5002 16.6719C17.025 16.6719 18.2611 15.4756 18.2611 14C18.2611 12.5244 17.025 11.3281 15.5002 11.3281C13.9754 11.3281 12.7393 12.5244 12.7393 14C12.7393 15.4756 13.9754 16.6719 15.5002 16.6719Z" fill="#61DAFB"/>
<path d="M25.9865 9.59374C25.4537 9.40626 24.8967 9.21874 24.3154 9.0547C24.4607 8.49219 24.5818 7.9297 24.6787 7.39063C25.1873 4.29689 24.6303 2.11719 23.0803 1.27344C22.6201 1.01563 22.1115 0.898438 21.5303 0.898438C19.835 0.898438 17.6795 2.11719 15.4998 4.15626C13.3201 2.11719 11.1646 0.898438 9.46935 0.898438C8.88808 0.898438 8.3795 1.01563 7.91935 1.27344C6.36935 2.14063 5.81232 4.3203 6.32091 7.39063C6.41776 7.9297 6.53888 8.49219 6.68417 9.0547C6.10294 9.21874 5.54591 9.38282 5.01308 9.59374C1.98574 10.7187 0.338867 12.2656 0.338867 14C0.338867 15.7344 2.00996 17.2813 5.01308 18.4063C5.54591 18.5937 6.10294 18.7813 6.68417 18.9453C6.53888 19.5078 6.41776 20.0703 6.32091 20.6094C5.81232 23.7031 6.36935 25.8828 7.91935 26.7266C8.3795 26.9844 8.88808 27.1016 9.46935 27.1016C11.1889 27.1016 13.3443 25.8828 15.4998 23.8437C17.6795 25.8828 19.835 27.1016 21.5303 27.1016C22.1115 27.1016 22.6201 26.9844 23.0803 26.7266C24.6303 25.8594 25.1873 23.6797 24.6787 20.6094C24.5818 20.0703 24.4607 19.5078 24.3154 18.9453C24.8967 18.7813 25.4537 18.6172 25.9865 18.4063C29.0139 17.2813 30.6607 15.7344 30.6607 14C30.6607 12.2656 29.0139 10.7187 25.9865 9.59374ZM22.4021 2.4453C23.3951 3.00781 23.7342 4.74219 23.3225 7.20311C23.2498 7.6953 23.1287 8.21093 22.9834 8.75C21.724 8.46874 20.392 8.28126 18.9873 8.16407C18.1639 7.03907 17.3162 6.03126 16.4686 5.11719C18.2607 3.40626 20.0771 2.23437 21.5545 2.23437C21.8693 2.23437 22.16 2.3047 22.4021 2.4453ZM19.6896 16.3437C19.2537 17.0937 18.7451 17.8437 18.2123 18.5937C17.3162 18.6641 16.4201 18.6875 15.4998 18.6875C14.5553 18.6875 13.6592 18.6641 12.7873 18.5937C12.2545 17.8437 11.7701 17.0937 11.3342 16.3437C10.874 15.5703 10.4381 14.7734 10.0506 14C10.4381 13.2266 10.874 12.4297 11.3342 11.6563C11.7701 10.9063 12.2787 10.1563 12.8115 9.40626C13.7076 9.33593 14.6037 9.31252 15.524 9.31252C16.4686 9.31252 17.3646 9.33593 18.2365 9.40626C18.7694 10.1563 19.2537 10.9063 19.6896 11.6563C20.1498 12.4297 20.5857 13.2266 20.9732 14C20.5615 14.7734 20.1498 15.5469 19.6896 16.3437ZM21.6998 15.5703C22.0631 16.3906 22.3537 17.1875 22.6201 17.9844C21.7967 18.1719 20.9248 18.3125 20.0045 18.4297C20.2951 17.9844 20.61 17.5156 20.8764 17.0234C21.167 16.5313 21.4334 16.0391 21.6998 15.5703ZM15.4998 21.9219C14.9186 21.3125 14.3615 20.6563 13.8287 19.9766C14.3857 20 14.9428 20.0234 15.4998 20.0234C16.0568 20.0234 16.6139 20 17.1709 19.9766C16.6381 20.6563 16.0811 21.3125 15.4998 21.9219ZM10.9951 18.4063C10.0748 18.2891 9.20294 18.1484 8.3795 17.9609C8.64591 17.1875 8.93653 16.3672 9.29982 15.5469C9.5662 16.0156 9.83261 16.5078 10.1232 16.9766C10.4139 17.4922 10.7045 17.9375 10.9951 18.4063ZM9.29982 12.4297C8.93653 11.6094 8.64591 10.8125 8.3795 10.0156C9.20294 9.82811 10.0748 9.68752 10.9951 9.5703C10.7045 10.0156 10.3896 10.4844 10.1232 10.9766C9.83261 11.4687 9.5662 11.9609 9.29982 12.4297ZM15.4998 6.07811C16.0811 6.68752 16.6381 7.34374 17.1709 8.02344C16.6139 8 16.0568 7.97656 15.4998 7.97656C14.9428 7.97656 14.3857 8 13.8287 8.02344C14.3615 7.34374 14.9186 6.68752 15.4998 6.07811ZM20.8764 11L20.0045 9.59374C20.9248 9.71093 21.7967 9.85156 22.6201 10.0391C22.3537 10.8125 22.0631 11.6328 21.6998 12.4531C21.4334 11.9609 21.167 11.4687 20.8764 11ZM7.67714 7.20311C7.26544 4.74219 7.6045 3.00781 8.59747 2.4453C8.83964 2.3047 9.13026 2.23437 9.44511 2.23437C10.8982 2.23437 12.7146 3.38281 14.5311 5.11719C13.6834 6.00781 12.8357 7.03907 12.0123 8.16407C10.6076 8.28126 9.27558 8.49219 8.0162 8.75C7.87091 8.21093 7.77403 7.6953 7.67714 7.20311ZM1.69512 14C1.69512 12.8984 3.07559 11.7266 5.49747 10.8594C5.98185 10.6719 6.51464 10.5078 7.04747 10.3672C7.43497 11.5391 7.91935 12.7813 8.50058 14.0234C7.91935 15.2656 7.41073 16.4844 7.04747 17.6563C3.70526 16.7187 1.69512 15.3125 1.69512 14ZM8.59747 25.5547C7.6045 24.9922 7.26544 23.2578 7.67714 20.7969C7.74982 20.3047 7.87091 19.7891 8.0162 19.25C9.27558 19.5313 10.6076 19.7187 12.0123 19.8359C12.8357 20.9609 13.6834 21.9687 14.5311 22.8828C12.7389 24.5937 10.9225 25.7656 9.44511 25.7656C9.13026 25.7656 8.83964 25.6953 8.59747 25.5547ZM23.3225 20.7969C23.7342 23.2578 23.3951 24.9922 22.4021 25.5547C22.16 25.6953 21.8693 25.7656 21.5545 25.7656C20.1014 25.7656 18.285 24.6172 16.4686 22.8828C17.3162 21.9922 18.1639 20.9609 18.9873 19.8359C20.392 19.7187 21.724 19.5078 22.9834 19.25C23.1287 19.7891 23.2256 20.3047 23.3225 20.7969ZM25.5021 17.1406C25.0178 17.3281 24.485 17.4922 23.9521 17.6328C23.5646 16.4609 23.0803 15.2187 22.499 13.9766C23.0803 12.7344 23.5889 11.5156 23.9521 10.3437C27.2943 11.2813 29.3045 12.6875 29.3045 14C29.3045 15.1016 27.8998 16.2734 25.5021 17.1406Z" fill="#61DAFB"/>
</svg>
